<svg id="visual" viewBox="0 0 900 600" width="900" height="600" xmlns="http://www.w3.org/2000/svg" xmlns:xlink="http://www.w3.org/1999/xlink" version="1.1"><g stroke-width="1" stroke-linejoin="bevel"><path d="M425 333L439 226L372.5 321Z" fill="#011133" stroke="#011133"></path><path d="M439 226L335.5 214L372.5 321Z" fill="#021e44" stroke="#021e44"></path><path d="M348.5 439L489 365L425 333Z" fill="#011133" stroke="#011133"></path><path d="M425 333L550.5 306L439 226Z" fill="#00082b" stroke="#00082b"></path><path d="M489 365L550.5 306L425 333Z" fill="#03457a" stroke="#03457a"></path><path d="M335.5 214L260 306L372.5 321Z" fill="#004c83" stroke="#004c83"></path><path d="M372.5 321L348.5 439L425 333Z" fill="#042a55" stroke="#042a55"></path><path d="M528.5 122L464 120L439 226Z" fill="#03244c" stroke="#03244c"></path><path d="M439 226L360.5 104L335.5 214Z" fill="#004c83" stroke="#004c83"></path><path d="M232 371L348.5 439L372.5 321Z" fill="#00082b" stroke="#00082b"></path><path d="M464 120L360.5 104L439 226Z" fill="#004c83" stroke="#004c83"></path><path d="M335.5 214L185 241L260 306Z" fill="#011133" stroke="#011133"></path><path d="M569.5 157L528.5 122L439 226Z" fill="#03244c" stroke="#03244c"></path><path d="M464 120L460 0L360.5 104Z" fill="#042a55" stroke="#042a55"></path><path d="M550.5 306L569.5 157L439 226Z" fill="#03244c" stroke="#03244c"></path><path d="M260 306L232 371L372.5 321Z" fill="#03457a" stroke="#03457a"></path><path d="M489 365L574.5 412L550.5 306Z" fill="#00082b" stroke="#00082b"></path><path d="M550.5 306L664 211L569.5 157Z" fill="#05305e" stroke="#05305e"></path><path d="M490 527L574.5 412L489 365Z" fill="#053767" stroke="#053767"></path><path d="M225 101L185 241L335.5 214Z" fill="#042a55" stroke="#042a55"></path><path d="M260 306L185 241L232 371Z" fill="#01183b" stroke="#01183b"></path><path d="M232 371L322.5 497L348.5 439Z" fill="#042a55" stroke="#042a55"></path><path d="M348.5 439L490 527L489 365Z" fill="#053767" stroke="#053767"></path><path d="M360.5 104L225 101L335.5 214Z" fill="#042a55" stroke="#042a55"></path><path d="M673 260L664 211L550.5 306Z" fill="#053767" stroke="#053767"></path><path d="M520.5 0L464 120L528.5 122Z" fill="#03244c" stroke="#03244c"></path><path d="M322.5 497L490 527L348.5 439Z" fill="#03244c" stroke="#03244c"></path><path d="M574.5 412L673 260L550.5 306Z" fill="#004c83" stroke="#004c83"></path><path d="M520.5 0L528.5 122L661 0Z" fill="#03244c" stroke="#03244c"></path><path d="M520.5 0L460 0L464 120Z" fill="#053767" stroke="#053767"></path><path d="M360.5 104L325.5 0L225 101Z" fill="#05305e" stroke="#05305e"></path><path d="M460 0L325.5 0L360.5 104Z" fill="#053767" stroke="#053767"></path><path d="M694 61L528.5 122L569.5 157Z" fill="#053767" stroke="#053767"></path><path d="M490 527L600.5 515L574.5 412Z" fill="#043e70" stroke="#043e70"></path><path d="M574.5 412L674 437L673 260Z" fill="#011133" stroke="#011133"></path><path d="M185 241L103.5 284L232 371Z" fill="#00082b" stroke="#00082b"></path><path d="M232 371L199 507L322.5 497Z" fill="#03244c" stroke="#03244c"></path><path d="M105.5 192L103.5 284L185 241Z" fill="#021e44" stroke="#021e44"></path><path d="M647 482L674 437L574.5 412Z" fill="#043e70" stroke="#043e70"></path><path d="M103.5 284L148.5 441L232 371Z" fill="#00082b" stroke="#00082b"></path><path d="M148.5 441L199 507L232 371Z" fill="#021e44" stroke="#021e44"></path><path d="M322.5 497L410 600L490 527Z" fill="#05305e" stroke="#05305e"></path><path d="M600.5 515L647 482L574.5 412Z" fill="#03457a" stroke="#03457a"></path><path d="M102.5 87L105.5 192L225 101Z" fill="#021e44" stroke="#021e44"></path><path d="M225 101L105.5 192L185 241Z" fill="#03457a" stroke="#03457a"></path><path d="M307.5 600L410 600L322.5 497Z" fill="#00082b" stroke="#00082b"></path><path d="M490 527L576.5 600L600.5 515Z" fill="#03244c" stroke="#03244c"></path><path d="M325.5 0L242 0L225 101Z" fill="#011133" stroke="#011133"></path><path d="M251 600L307.5 600L322.5 497Z" fill="#053767" stroke="#053767"></path><path d="M0 464L134.5 501L148.5 441Z" fill="#004c83" stroke="#004c83"></path><path d="M148.5 441L134.5 501L199 507Z" fill="#03457a" stroke="#03457a"></path><path d="M199 507L251 600L322.5 497Z" fill="#011133" stroke="#011133"></path><path d="M817.5 223L694 61L664 211Z" fill="#053767" stroke="#053767"></path><path d="M664 211L694 61L569.5 157Z" fill="#042a55" stroke="#042a55"></path><path d="M817.5 223L664 211L673 260Z" fill="#021e44" stroke="#021e44"></path><path d="M116.5 600L251 600L199 507Z" fill="#004c83" stroke="#004c83"></path><path d="M133.5 0L102.5 87L225 101Z" fill="#011133" stroke="#011133"></path><path d="M105.5 192L0 264L103.5 284Z" fill="#011133" stroke="#011133"></path><path d="M410 600L576.5 600L490 527Z" fill="#03457a" stroke="#03457a"></path><path d="M600.5 515L693 600L647 482Z" fill="#042a55" stroke="#042a55"></path><path d="M826.5 336L673 260L674 437Z" fill="#05305e" stroke="#05305e"></path><path d="M694 61L661 0L528.5 122Z" fill="#00082b" stroke="#00082b"></path><path d="M242 0L133.5 0L225 101Z" fill="#042a55" stroke="#042a55"></path><path d="M0 201L105.5 192L102.5 87Z" fill="#03244c" stroke="#03244c"></path><path d="M0 201L0 264L105.5 192Z" fill="#05305e" stroke="#05305e"></path><path d="M103.5 284L0 360L148.5 441Z" fill="#043e70" stroke="#043e70"></path><path d="M826.5 336L817.5 223L673 260Z" fill="#021e44" stroke="#021e44"></path><path d="M694 61L767.5 0L661 0Z" fill="#004c83" stroke="#004c83"></path><path d="M826.5 336L674 437L826.5 417Z" fill="#053767" stroke="#053767"></path><path d="M0 79L0 201L102.5 87Z" fill="#03457a" stroke="#03457a"></path><path d="M0 264L0 360L103.5 284Z" fill="#03244c" stroke="#03244c"></path><path d="M768.5 519L674 437L647 482Z" fill="#043e70" stroke="#043e70"></path><path d="M576.5 600L693 600L600.5 515Z" fill="#03457a" stroke="#03457a"></path><path d="M693 600L768.5 519L647 482Z" fill="#03457a" stroke="#03457a"></path><path d="M0 600L116.5 600L134.5 501Z" fill="#021e44" stroke="#021e44"></path><path d="M134.5 501L116.5 600L199 507Z" fill="#03244c" stroke="#03244c"></path><path d="M768.5 519L826.5 417L674 437Z" fill="#004c83" stroke="#004c83"></path><path d="M0 360L0 464L148.5 441Z" fill="#004c83" stroke="#004c83"></path><path d="M827.5 74L767.5 0L694 61Z" fill="#05305e" stroke="#05305e"></path><path d="M0 0L0 79L102.5 87Z" fill="#03457a" stroke="#03457a"></path><path d="M900 118L827.5 74L817.5 223Z" fill="#00082b" stroke="#00082b"></path><path d="M817.5 223L827.5 74L694 61Z" fill="#03457a" stroke="#03457a"></path><path d="M900 260L817.5 223L826.5 336Z" fill="#004c83" stroke="#004c83"></path><path d="M900 417L900 260L826.5 336Z" fill="#004c83" stroke="#004c83"></path><path d="M900 260L900 226L817.5 223Z" fill="#042a55" stroke="#042a55"></path><path d="M133.5 0L0 0L102.5 87Z" fill="#021e44" stroke="#021e44"></path><path d="M900 525L900 417L826.5 417Z" fill="#00082b" stroke="#00082b"></path><path d="M826.5 417L900 417L826.5 336Z" fill="#011133" stroke="#011133"></path><path d="M900 525L826.5 417L768.5 519Z" fill="#042a55" stroke="#042a55"></path><path d="M900 226L900 118L817.5 223Z" fill="#011133" stroke="#011133"></path><path d="M827.5 74L900 0L767.5 0Z" fill="#00082b" stroke="#00082b"></path><path d="M0 464L0 600L134.5 501Z" fill="#05305e" stroke="#05305e"></path><path d="M693 600L822.5 600L768.5 519Z" fill="#011133" stroke="#011133"></path><path d="M822.5 600L900 525L768.5 519Z" fill="#00082b" stroke="#00082b"></path><path d="M900 118L900 0L827.5 74Z" fill="#00082b" stroke="#00082b"></path><path d="M822.5 600L900 600L900 525Z" fill="#03244c" stroke="#03244c"></path></g></svg>