<svg id="visual" viewBox="0 0 900 600" width="900" height="600" xmlns="http://www.w3.org/2000/svg" xmlns:xlink="http://www.w3.org/1999/xlink" version="1.1"><rect x="0" y="0" width="900" height="600" fill="#002233"></rect><path d="M0 455L21.5 452.2C43 449.3 86 443.7 128.8 432C171.7 420.3 214.3 402.7 257.2 392.2C300 381.7 343 378.3 385.8 388C428.7 397.7 471.3 420.3 514.2 445C557 469.7 600 496.3 642.8 503.5C685.7 510.7 728.3 498.3 771.2 474.8C814 451.3 857 416.7 878.5 399.3L900 382L900 601L878.5 601C857 601 814 601 771.2 601C728.3 601 685.7 601 642.8 601C600 601 557 601 514.2 601C471.3 601 428.7 601 385.8 601C343 601 300 601 257.2 601C214.3 601 171.7 601 128.8 601C86 601 43 601 21.5 601L0 601Z" fill="#0066FF" stroke-linecap="round" stroke-linejoin="miter"></path></svg>